<mxfile host="app.diagrams.net" agent="Mozilla/5.0 (Macintosh; Intel Mac OS X 10_15_7) AppleWebKit/537.36 (KHTML, like Gecko) Chrome/139.0.0.0 Safari/537.36" version="28.1.2">
  <diagram name="Page-1" id="bA1suY69hK--06wU32hB">
    <mxGraphModel dx="1709" dy="969" grid="0" gridSize="10" guides="1" tooltips="1" connect="1" arrows="1" fold="1" page="0" pageScale="1" pageWidth="850" pageHeight="1100" math="0" shadow="0">
      <root>
        <mxCell id="0" />
        <mxCell id="1" parent="0" />
        <mxCell id="_sGb873wrfGEALdS0r91-19" style="edgeStyle=orthogonalEdgeStyle;rounded=0;orthogonalLoop=1;jettySize=auto;html=1;exitX=1;exitY=0.5;exitDx=0;exitDy=0;entryX=0;entryY=0.5;entryDx=0;entryDy=0;strokeWidth=2;" edge="1" parent="1" source="_sGb873wrfGEALdS0r91-6" target="_sGb873wrfGEALdS0r91-7">
          <mxGeometry relative="1" as="geometry" />
        </mxCell>
        <mxCell id="_sGb873wrfGEALdS0r91-6" value="" style="rounded=0;whiteSpace=wrap;html=1;strokeWidth=2;fillColor=#e1d5e7;strokeColor=#9673a6;" vertex="1" parent="1">
          <mxGeometry x="534" y="386.5" width="236" height="63" as="geometry" />
        </mxCell>
        <mxCell id="_sGb873wrfGEALdS0r91-16" style="edgeStyle=orthogonalEdgeStyle;rounded=0;orthogonalLoop=1;jettySize=auto;html=1;exitX=1;exitY=0;exitDx=0;exitDy=0;entryX=0;entryY=0.5;entryDx=0;entryDy=0;strokeWidth=2;" edge="1" parent="1" source="_sGb873wrfGEALdS0r91-1" target="_sGb873wrfGEALdS0r91-6">
          <mxGeometry relative="1" as="geometry" />
        </mxCell>
        <mxCell id="_sGb873wrfGEALdS0r91-23" value="&lt;font style=&quot;font-size: 16px;&quot;&gt;是&lt;/font&gt;" style="edgeLabel;html=1;align=center;verticalAlign=middle;resizable=0;points=[];" vertex="1" connectable="0" parent="_sGb873wrfGEALdS0r91-16">
          <mxGeometry x="-0.3111" y="3" relative="1" as="geometry">
            <mxPoint as="offset" />
          </mxGeometry>
        </mxCell>
        <mxCell id="_sGb873wrfGEALdS0r91-17" style="edgeStyle=orthogonalEdgeStyle;rounded=0;orthogonalLoop=1;jettySize=auto;html=1;exitX=1;exitY=1;exitDx=0;exitDy=0;entryX=0;entryY=0.5;entryDx=0;entryDy=0;strokeWidth=2;" edge="1" parent="1" source="_sGb873wrfGEALdS0r91-1" target="_sGb873wrfGEALdS0r91-13">
          <mxGeometry relative="1" as="geometry" />
        </mxCell>
        <mxCell id="_sGb873wrfGEALdS0r91-24" value="&lt;font style=&quot;font-size: 16px;&quot;&gt;否&lt;/font&gt;" style="edgeLabel;html=1;align=center;verticalAlign=middle;resizable=0;points=[];" vertex="1" connectable="0" parent="_sGb873wrfGEALdS0r91-17">
          <mxGeometry x="-0.2389" y="-1" relative="1" as="geometry">
            <mxPoint as="offset" />
          </mxGeometry>
        </mxCell>
        <mxCell id="_sGb873wrfGEALdS0r91-1" value="" style="rhombus;whiteSpace=wrap;html=1;strokeWidth=2;fillColor=#e1d5e7;strokeColor=#9673a6;" vertex="1" parent="1">
          <mxGeometry x="72" y="333" width="196" height="170" as="geometry" />
        </mxCell>
        <mxCell id="_sGb873wrfGEALdS0r91-4" value="&lt;font style=&quot;font-size: 16px;&quot;&gt;是否提供了evaluation_steps步骤？&lt;/font&gt;" style="text;html=1;align=left;verticalAlign=middle;whiteSpace=wrap;rounded=0;" vertex="1" parent="1">
          <mxGeometry x="119" y="402.5" width="126" height="28" as="geometry" />
        </mxCell>
        <mxCell id="_sGb873wrfGEALdS0r91-5" value="&lt;font style=&quot;font-size: 16px;&quot;&gt;结合测试用例和evaluation_params创建提示词&lt;/font&gt;" style="text;html=1;align=left;verticalAlign=middle;whiteSpace=wrap;rounded=0;" vertex="1" parent="1">
          <mxGeometry x="542" y="396.25" width="220" height="46" as="geometry" />
        </mxCell>
        <mxCell id="_sGb873wrfGEALdS0r91-21" style="edgeStyle=orthogonalEdgeStyle;rounded=0;orthogonalLoop=1;jettySize=auto;html=1;exitX=1;exitY=0.5;exitDx=0;exitDy=0;entryX=0;entryY=0.5;entryDx=0;entryDy=0;strokeWidth=2;" edge="1" parent="1" source="_sGb873wrfGEALdS0r91-7" target="_sGb873wrfGEALdS0r91-9">
          <mxGeometry relative="1" as="geometry" />
        </mxCell>
        <mxCell id="_sGb873wrfGEALdS0r91-7" value="" style="rounded=0;whiteSpace=wrap;html=1;strokeWidth=2;fillColor=#e1d5e7;strokeColor=#9673a6;" vertex="1" parent="1">
          <mxGeometry x="853" y="394.25" width="139" height="48" as="geometry" />
        </mxCell>
        <mxCell id="_sGb873wrfGEALdS0r91-8" value="&lt;span style=&quot;font-size: 16px;&quot;&gt;生成分数 (1-10)&lt;/span&gt;" style="text;html=1;align=left;verticalAlign=middle;whiteSpace=wrap;rounded=0;" vertex="1" parent="1">
          <mxGeometry x="864.5" y="395" width="116" height="46" as="geometry" />
        </mxCell>
        <mxCell id="_sGb873wrfGEALdS0r91-22" style="edgeStyle=orthogonalEdgeStyle;rounded=0;orthogonalLoop=1;jettySize=auto;html=1;exitX=1;exitY=0.5;exitDx=0;exitDy=0;strokeWidth=2;" edge="1" parent="1" source="_sGb873wrfGEALdS0r91-9">
          <mxGeometry relative="1" as="geometry">
            <mxPoint x="1333.9411764705883" y="418.0588235294117" as="targetPoint" />
          </mxGeometry>
        </mxCell>
        <mxCell id="_sGb873wrfGEALdS0r91-9" value="" style="rounded=0;whiteSpace=wrap;html=1;strokeWidth=2;fillColor=#e1d5e7;strokeColor=#9673a6;" vertex="1" parent="1">
          <mxGeometry x="1074" y="388.75" width="187" height="59" as="geometry" />
        </mxCell>
        <mxCell id="_sGb873wrfGEALdS0r91-10" value="&lt;span style=&quot;font-size: 16px;&quot;&gt;使用词元（token）概率归一化并除以10&lt;/span&gt;" style="text;html=1;align=left;verticalAlign=middle;whiteSpace=wrap;rounded=0;" vertex="1" parent="1">
          <mxGeometry x="1080.5" y="396.25" width="174" height="46" as="geometry" />
        </mxCell>
        <mxCell id="_sGb873wrfGEALdS0r91-11" value="" style="rounded=0;whiteSpace=wrap;html=1;strokeWidth=2;fillColor=#e1d5e7;strokeColor=#9673a6;" vertex="1" parent="1">
          <mxGeometry x="1337" y="394" width="120" height="48" as="geometry" />
        </mxCell>
        <mxCell id="_sGb873wrfGEALdS0r91-12" value="&lt;span style=&quot;font-size: 16px;&quot;&gt;最终得分 (0-1)&lt;/span&gt;" style="text;html=1;align=left;verticalAlign=middle;whiteSpace=wrap;rounded=0;" vertex="1" parent="1">
          <mxGeometry x="1342" y="395" width="110" height="46" as="geometry" />
        </mxCell>
        <mxCell id="_sGb873wrfGEALdS0r91-18" style="edgeStyle=orthogonalEdgeStyle;rounded=0;orthogonalLoop=1;jettySize=auto;html=1;exitX=1;exitY=0.5;exitDx=0;exitDy=0;entryX=0;entryY=0.5;entryDx=0;entryDy=0;strokeWidth=2;" edge="1" parent="1" source="_sGb873wrfGEALdS0r91-13" target="_sGb873wrfGEALdS0r91-6">
          <mxGeometry relative="1" as="geometry" />
        </mxCell>
        <mxCell id="_sGb873wrfGEALdS0r91-13" value="" style="rounded=0;whiteSpace=wrap;html=1;strokeWidth=2;fillColor=#e1d5e7;strokeColor=#9673a6;" vertex="1" parent="1">
          <mxGeometry x="321" y="467" width="172" height="47" as="geometry" />
        </mxCell>
        <mxCell id="_sGb873wrfGEALdS0r91-14" value="&lt;span style=&quot;font-size: 16px;&quot;&gt;基于criteria生成步骤&lt;/span&gt;" style="text;html=1;align=left;verticalAlign=middle;whiteSpace=wrap;rounded=0;" vertex="1" parent="1">
          <mxGeometry x="329" y="468" width="156" height="46" as="geometry" />
        </mxCell>
      </root>
    </mxGraphModel>
  </diagram>
</mxfile>
